{"scene":0,"asset":{"generator":"ImageToStl.com","version":"2.0"},"scenes":[{"name":"Scene","nodes":[0]}],"nodes":[{"name":"Node0","children":[1]},{"name":"Node1","mesh":0}],"materials":[{"name":"x1","pbrMetallicRoughness":{"baseColorFactor":[0.85,0.85,0.85,1.0],"metallicFactor":0.05,"roughnessFactor":0.5},"doubleSided":true}],"meshes":[{"name":"Mesh0","primitives":[{"indices":1,"material":0,"attributes":{"POSITION":0}}]}],"accessors":[{"bufferView":0,"componentType":5126,"count":556,"type":"VEC3","min":[-0.790374,-0.545902,-0.662099],"max":[0.873966,0.615633,0.70747]},{"bufferView":1,"componentType":5123,"count":3324,"type":"SCALAR"}],"bufferViews":[{"target":34962,"buffer":0,"byteLength":6672,"byteOffset":0},{"target":34963,"buffer":0,"byteLength":6648,"byteOffset":6672}],"buffers":[{"byteLength":13320,"uri":"data:application/octet-stream;base64,"}]}